<?xml version="1.0" standalone="no"?>
<!DOCTYPE svg PUBLIC "-//W3C//DTD SVG 20010904//EN"
 "http://www.w3.org/TR/2001/REC-SVG-20010904/DTD/svg10.dtd">
<svg version="1.0" xmlns="http://www.w3.org/2000/svg"
 width="1256.000000pt" height="1256.000000pt" viewBox="0 0 1256.000000 1256.000000"
 preserveAspectRatio="xMidYMid meet">
<metadata>
Created by potrace 1.14, written by Peter Selinger 2001-2017
</metadata>
<g transform="translate(0.000000,1256.000000) scale(0.100000,-0.100000)"
fill="#000000" stroke="none">
<path d="M0 9206 c0 -762 3 -965 13 -968 6 -2 2831 -4 6277 -3 l6265 1 2 967
3 967 -6280 0 -6280 0 0 -964z"/>
<path d="M1448 7269 c-6 -4 -8 -13 -6 -20 3 -8 1 -22 -4 -31 -5 -10 -5 -18 0
-18 4 0 7 -15 5 -32 -5 -41 -4 -91 2 -96 2 -3 0 -13 -6 -23 -5 -11 -6 -19 -2
-19 4 0 8 -29 8 -65 0 -36 -4 -65 -8 -65 -4 0 -4 -8 0 -17 10 -21 9 -115 -1
-132 -4 -6 -3 -11 2 -11 9 0 7 -64 -3 -80 -3 -6 -2 -10 2 -10 5 0 7 -19 5 -42
-2 -24 -3 -49 -3 -55 0 -7 1 -38 1 -68 0 -30 0 -61 0 -67 0 -47 0 -136 -1
-148 0 -8 1 -32 3 -52 3 -21 1 -38 -3 -38 -6 0 -5 -22 1 -40 1 -3 2 -18 1 -35
-2 -53 -2 -69 2 -102 2 -18 -1 -33 -5 -33 -5 0 -5 -8 -1 -17 10 -22 10 -94 0
-110 -4 -6 -4 -14 1 -17 5 -3 7 -22 4 -43 -4 -47 -4 -49 0 -95 3 -21 1 -38 -4
-38 -5 0 -5 -8 -1 -17 10 -22 10 -94 0 -110 -4 -6 -4 -14 1 -17 5 -3 7 -22 4
-43 -2 -21 -3 -44 -3 -50 1 -13 1 -54 0 -75 0 -7 2 -39 3 -71 2 -32 0 -61 -5
-64 -4 -3 -4 -10 0 -16 5 -7 7 -25 6 -42 -2 -16 -3 -41 -3 -55 1 -14 0 -34 0
-45 -1 -11 -1 -27 -1 -35 1 -14 1 -193 0 -215 0 -5 2 -36 3 -67 2 -32 0 -58
-4 -58 -4 0 -4 -8 -1 -17 8 -21 8 -145 0 -166 -3 -9 -3 -17 1 -17 4 0 7 -36 7
-80 0 -44 -4 -80 -8 -80 -4 0 -4 -8 1 -17 9 -21 9 -84 -2 -101 -4 -7 -4 -12 1
-12 10 0 9 -162 -1 -178 -4 -7 -4 -12 1 -12 4 0 8 -36 8 -80 0 -44 -4 -80 -8
-80 -5 0 -5 -5 -1 -11 10 -17 10 -109 0 -109 -5 0 -5 -5 0 -12 10 -14 11 -136
1 -162 -4 -9 -3 -16 1 -16 4 0 7 -29 7 -65 0 -36 -4 -65 -9 -65 -5 0 -4 -6 1
-12 5 -7 7 -51 6 -98 -2 -47 -3 -91 -3 -97 -1 -44 0 -135 0 -145 0 -7 0 -35 0
-63 0 -27 0 -59 0 -70 0 -91 0 -183 0 -200 0 -11 1 -48 2 -83 2 -34 -1 -62 -6
-62 -5 0 -4 -6 1 -13 5 -6 8 -44 8 -82 l-2 -70 966 0 966 0 0 2437 c0 1618 -3
2438 -10 2439 -40 5 -1909 3 -1917 -2z"/>
<path d="M4828 7263 c-4 -7 -2 -4845 1 -4865 0 -5 1740 -8 3866 -8 l3865 0 0
968 0 967 -2975 0 c-2676 -1 -2975 1 -2979 15 -2 8 -3 236 -2 505 l1 490 2977
0 2978 0 0 968 0 967 -3865 0 c-2125 0 -3865 -3 -3867 -7z"/>
</g>
</svg>
